# xmcd
# 
# Track frame offsets:
#     150
#     17880
#     35262
#     50977
#     62080
#     77862
#     83132
# 
# Disc length: 1305
# 
# Revision: 1
# Processed by: cddbd v1.5.2PL0 Copyright (c) Steve Scherf et al.
# Submitted via: BonkEnc v1.0.6
# 
DISCID=57051707
DTITLE=Gina Jeffreys - The Flame - Bonus Tracks
DYEAR=1995
DGENRE=Country
TTITLE0=Didn't We Shine
TTITLE1=Nothing But A Child
TTITLE2=Mercedz Benz
TTITLE3=You're No Good
TTITLE4=If This Is Love
TTITLE5=The One I Love
TTITLE6=I'm Getting Over You
EXTD=
EXTT0=
EXTT1=
EXTT2=
EXTT3=
EXTT4=
EXTT5=
EXTT6=
PLAYORDER=
